<svg width="497" height="691" viewBox="0 0 497 691" fill="none" xmlns="http://www.w3.org/2000/svg">
<mask id="mask0_9_849" style="mask-type:alpha" maskUnits="userSpaceOnUse" x="-194" y="0" width="691" height="691">
<circle cx="151.5" cy="345.5" r="345.5" transform="rotate(180 151.5 345.5)" fill="#C4C4C4"/>
</mask>
<g mask="url(#mask0_9_849)">
<path d="M589.47 679.606C589.47 679.606 413.869 718.352 368.637 860.162C325.511 995.541 147.184 1030.05 147.184 1030.05" stroke="#EDF1FF" stroke-width="2" stroke-miterlimit="10"/>
<path d="M589.47 622.975C589.47 622.975 381.525 667.055 327.989 832.867C276.933 991.462 65.7651 1030.05 65.7651 1030.05" stroke="#EDF1FF" stroke-width="2" stroke-miterlimit="10"/>
<path d="M589.47 566.502C589.47 566.502 349.057 615.759 287.218 805.885C228.354 987.226 -15.653 1030.05 -15.653 1030.05" stroke="#EDF1FF" stroke-width="2" stroke-miterlimit="10"/>
<path d="M589.47 510.028C589.47 510.028 316.588 564.462 246.447 778.747C179.776 982.991 -96.9475 1030.05 -96.9475 1030.05" stroke="#EDF1FF" stroke-width="2" stroke-miterlimit="10"/>
<path d="M589.47 453.399C589.47 453.399 284.244 513.009 205.8 751.609C131.074 978.913 -178.365 1030.05 -178.365 1030.05" stroke="#EDF1FF" stroke-width="2" stroke-miterlimit="10"/>
<path d="M589.47 396.926C589.47 396.926 251.776 461.87 165.029 724.469C82.4951 974.677 -259.784 1030.05 -259.784 1030.05" stroke="#EDF1FF" stroke-width="2" stroke-miterlimit="10"/>
<path d="M589.47 340.453C589.47 340.453 219.307 410.574 124.382 697.488C33.9172 970.442 -341.202 1030.05 -341.202 1030.05" stroke="#EDF1FF" stroke-width="2" stroke-miterlimit="10"/>
<path d="M589.47 283.822C589.47 283.822 186.964 359.119 83.6107 670.193C-14.6617 966.363 -422.497 1030.05 -422.497 1030.05" stroke="#EDF1FF" stroke-width="2" stroke-miterlimit="10"/>
<path d="M589.47 227.353C589.47 227.353 154.495 307.823 42.9629 643.054C-63.2397 962.128 -503.915 1030.05 -503.915 1030.05" stroke="#EDF1FF" stroke-width="2" stroke-miterlimit="10"/>
<path d="M589.47 170.723C589.47 170.723 122.027 256.528 2.19181 615.916C-111.818 957.892 -585.333 1030.05 -585.333 1030.05" stroke="#EDF1FF" stroke-width="2" stroke-miterlimit="10"/>
<path d="M589.47 114.245C589.47 114.245 89.6828 205.23 -38.455 588.777C-160.396 953.813 -666.749 1030.05 -666.749 1030.05" stroke="#EDF1FF" stroke-width="2" stroke-miterlimit="10"/>
<path d="M589.47 57.7788C589.47 57.7788 57.2149 153.933 -79.2262 561.796C-208.975 949.578 -748.167 1030.05 -748.167 1030.05" stroke="#EDF1FF" stroke-width="2" stroke-miterlimit="10"/>
<path d="M589.47 1.14796C589.47 1.14796 24.7461 102.637 -119.997 534.501C-257.553 945.342 -829.464 1030.05 -829.464 1030.05" stroke="#EDF1FF" stroke-width="2" stroke-miterlimit="10"/>
<path d="M589.47 -55.3297C589.47 -55.3297 -7.5976 51.3404 -160.644 507.519C-306.132 941.264 -910.883 1030.05 -910.883 1030.05" stroke="#EDF1FF" stroke-width="2" stroke-miterlimit="10"/>
<path d="M589.47 -111.808C589.47 -111.808 -40.0663 0.0435054 -201.415 480.381C-354.71 937.028 -992.301 1030.05 -992.301 1030.05" stroke="#EDF1FF" stroke-width="2" stroke-miterlimit="10"/>
<path d="M589.47 -168.438C589.47 -168.438 -72.5343 -51.4057 -242.062 453.242C-403.288 932.793 -1073.72 1030.05 -1073.72 1030.05" stroke="#EDF1FF" stroke-width="2" stroke-miterlimit="10"/>
<path d="M589.47 -224.905C589.47 -224.905 -104.879 -102.55 -282.833 426.103C-451.867 928.715 -1155.02 1030.05 -1155.02 1030.05" stroke="#EDF1FF" stroke-width="2" stroke-miterlimit="10"/>
</g>
</svg>
