        <svg width="1440" height="424" viewBox="0 0 1440 424" fill="none" xmlns="http://www.w3.org/2000/svg">
<path d="M0.435129 -265.987C480.193 -265.352 959.951 -266.562 1439.71 -265.987C1439.22 160.583 1440.18 587.153 1439.71 1013.72C959.951 1014.54 480.193 1014.54 0.435129 1013.72C-0.145043 587.153 -0.145043 160.583 0.435129 -265.987Z" stroke="#EDF1FF" strokeWidth="2" stroke-miterlimit="10"/>
<path d="M0.436523 526.202C103.082 517.234 198.253 479.954 296.748 455.233C333.567 445.987 387.813 427.456 426.171 441.543C454.801 452.158 474.861 481.224 490.281 503.148C519.691 544.813 560.861 660.363 626.175 673.121C706.886 688.993 695.996 555.328 697.692 515.865C699.678 469.181 688.164 343.749 774.029 359.126C889.261 379.76 999.092 444.083 1104.84 486.64C1179.26 516.599 1245.42 542.075 1327.98 535.13C1365.27 531.996 1402.38 528.404 1439.8 526.262" stroke="#EDF1FF" strokeWidth="2" stroke-miterlimit="10"/>
<path d="M0.436523 465.273C103.506 456.444 199.19 418.548 298.087 393.569C335.486 384.125 389.398 365.594 428.18 380.316C456.229 390.97 475.62 418.509 490.66 440.234C519.111 481.284 556.331 591.379 620.418 604.136C698.652 619.711 693.475 491.323 696.934 451.364C701.017 404.263 694.702 285.379 778.046 297.323C891.425 313.612 999.783 390.375 1099.37 435.968C1168.55 467.554 1241.29 500.787 1321.04 485.252C1362.37 477.197 1396.18 465.411 1439.69 465.213" stroke="#EDF1FF" strokeWidth="2" stroke-miterlimit="10"/>
<path d="M0.436523 404.344C105.916 394.979 203.965 355.913 305.183 330.101C385.046 309.744 444.67 296.531 492.021 365.476C518.575 404.125 544.08 490.471 602.923 503.288C673.905 518.823 691.444 421.942 703.873 380.833C717.73 335.021 733.797 244.549 808.103 257.941C902.337 274.924 985.19 355.893 1061.19 402.538C1128.27 443.707 1187.4 469.639 1269.18 447.854C1327.85 432.22 1377.14 407.34 1439.75 404.324" stroke="#EDF1FF" strokeWidth="2" stroke-miterlimit="10"/>
<path d="M0.436523 343.399C108.996 333.221 209.99 292.826 314.154 266.021C381.945 248.542 449.2 226.459 493.226 285.862C519.178 320.88 527.612 378.378 580.497 391.016C642.978 405.956 684.304 344.887 712.821 307.369C741.83 269.136 782.844 208.266 845.703 225.09C918.091 244.435 966.58 330.661 1013.22 377.148C1032.45 396.294 1059.18 423.316 1087.84 432.225C1124.61 443.633 1168.9 428.078 1203.16 416.769C1282.46 390.599 1354.43 352.625 1439.69 343.359" stroke="#EDF1FF" strokeWidth="2" stroke-miterlimit="10"/>
<path d="M0.436523 282.442C111.428 271.748 214.766 230.202 321.25 202.505C375.652 188.358 456.207 158.975 494.565 211.115C517.437 242.205 516.299 279.525 562.981 290.18C619.704 303.116 677.52 263.653 719.739 236.829C758.566 212.147 823.79 165.581 875.738 185.68C935.117 208.655 950.313 297.937 974.925 343.709C985.346 363.054 1000.74 390.89 1024.24 400.989C1060.41 416.544 1118.36 390.949 1151.21 379.362C1247.05 345.634 1336.42 296.41 1439.6 282.501" stroke="#EDF1FF" strokeWidth="2" stroke-miterlimit="10"/>
<path d="M0.436523 221.538C111.272 211.737 213.36 168.207 319.152 139.776C375.094 124.737 449.557 98.8844 492.601 147.017C517.147 174.516 522.971 208.662 566.105 218.185C619.659 230.089 682.139 193.642 725.518 171.481C765.037 151.323 837.67 107.436 885.78 125.61C944.868 147.95 949.911 241.597 969.034 287.051C977.603 307.428 989.809 334.252 1013.48 344.867C1049.39 360.997 1111.09 334.311 1143.29 322.725C1241.47 287.329 1332.8 233.442 1439.58 221.538" stroke="#EDF1FF" strokeWidth="2" stroke-miterlimit="10"/>
<path d="M0.436523 160.589C104.109 150.133 195.084 101.901 291.817 70.3744C363.044 47.1412 417.023 39.6217 482.961 73.3307C527.233 95.9686 567.934 132.098 620.618 138.804C678.033 146.185 722.461 115.69 766.264 87.8539C801.387 65.5135 862.707 19.9003 910.415 36.9036C971.11 58.609 983.851 161.581 1005.61 207.393C1015.2 227.63 1028.81 256.676 1052.91 267.43C1086.59 282.429 1145.34 260.605 1175.93 249.435C1264.68 217.095 1341.17 166.105 1439.51 160.51" stroke="#EDF1FF" strokeWidth="2" stroke-miterlimit="10"/>
<path d="M0.436523 99.639C94.0451 86.7824 168.999 33.094 252.588 -2.73785C330.912 -36.2881 391.428 -28.9272 471.76 -6.90433C545.865 13.4322 621.266 44.5618 699.366 50.7918C758.142 55.4741 788.913 28.4315 826.847 -6.7456C855.231 -33.0144 900.73 -79.6196 948.907 -63.906C973.185 -55.9698 990.322 -26.2091 1001.06 -8.05508C1026.38 34.6019 1043.18 80.5128 1067.06 123.567C1078.73 144.657 1096.07 178.049 1122.18 189.437C1153.17 202.968 1202.51 188.246 1230.8 176.56C1303.59 146.542 1354.92 99.9564 1439.53 99.5001" stroke="#EDF1FF" strokeWidth="2" stroke-miterlimit="10"/>
<path d="M0.436523 38.689C86.5475 24.1261 146.149 -34.5421 218.358 -74.3024C297.306 -117.753 374.871 -99.6585 461.272 -84.4211C562.222 -66.5647 665.024 -39.0658 768.295 -33.6692C828.543 -30.5145 849.631 -54.9183 879.42 -96.7023C901.199 -127.237 933.354 -174.794 983.985 -158.089C1011.63 -148.982 1035 -112.971 1048.7 -93.0318C1082.01 -44.76 1107.23 7.63869 1139.2 56.5851C1175.2 111.603 1224.47 165.866 1299.26 119.896C1353.02 86.8617 1365.29 40.3358 1439.62 38.5501" stroke="#EDF1FF" strokeWidth="2" stroke-miterlimit="10"/>
<path d="M0.436523 -22.2613C85.0078 -36.8242 137.29 -96.6829 205.728 -138.011C283.293 -184.794 368.244 -162.414 454.935 -149.578C565.904 -133.15 678.39 -108.528 790.988 -102.159C850.88 -98.7859 869.691 -123.13 895.308 -166.283C915.77 -200.746 943.685 -246.816 997.597 -225.666C1030.87 -212.611 1061.66 -170.946 1080.94 -146.542C1124.48 -91.4847 1160.29 -31.9633 1202.6 23.7884C1233.46 64.4812 1314.79 173.227 1365.94 92.1983C1388.92 55.7713 1373.91 -18.5709 1439.78 -22.2414" stroke="#EDF1FF" strokeWidth="2" stroke-miterlimit="10"/>
<path d="M0.436523 -83.2139C79.8755 -95.9317 136.554 -142.835 205.371 -176.166C282.423 -213.467 360.01 -196.92 442.997 -186.087C543.255 -172.873 644.406 -153.39 745.802 -148.152C801.231 -145.295 827.272 -165.155 861.993 -199.876C892.184 -230.073 927.909 -265.607 978.027 -244.894C1012.01 -230.847 1043.81 -196.86 1067.28 -172.496C1112.29 -125.633 1151.07 -74.3452 1195.12 -26.7876C1233.99 15.2146 1313.1 108.128 1363.44 31.0474C1387.99 -6.53049 1382.41 -69.0478 1440 -83.0552" stroke="#EDF1FF" strokeWidth="2" stroke-miterlimit="10"/>
<path d="M1371.11 -266.023C1372.25 -195.55 1394.79 -128.092 1400.59 -58.2734C1404.83 -7.00569 1381.93 37.9925 1370.02 87.2365C1346.1 185.943 1344.22 286.613 1371.18 384.665C1383.92 431.032 1391.93 474.106 1389.94 522.12C1388.09 566.741 1373.63 606.005 1363.17 649.337C1334.76 767.665 1372.09 894.247 1371.16 1013.79" stroke="#EDF1FF" strokeWidth="2" stroke-miterlimit="10"/>
<path d="M1302.62 -265.984C1313.42 -178.528 1361.15 -100.555 1380.39 -14.943C1389.14 24.0039 1385.74 35.8684 1359.55 63.7641C1341.7 82.7316 1325.23 98.485 1310.68 119.972C1276.81 169.99 1250.03 229.948 1245.74 288.854C1241.99 340.003 1268.06 371.133 1302.62 408.294C1334.2 442.221 1368.83 478.251 1358.99 526.146C1350.35 568.109 1312.13 580.489 1281.94 608.603C1236.73 650.804 1253.69 710.424 1262.52 762.962C1276.6 846.53 1298.09 929.106 1302.69 1013.73" stroke="#EDF1FF" strokeWidth="2" stroke-miterlimit="10"/>
<path d="M1234.16 -265.922C1256.97 -160.946 1327.59 -71.8826 1361.76 29.7006C1376.3 72.9925 1378.83 88.3688 1332.9 104.34C1302.64 114.856 1274.89 134.379 1252.21 154.517C1201.43 199.396 1148.7 266.834 1138.19 331.95C1129.11 388.099 1186.28 411.312 1234.14 432.938C1268.73 448.572 1351.85 481.706 1329.58 530.156C1310.68 571.345 1237.64 557.735 1200.33 566.187C1119.44 584.519 1153.05 658.366 1166.28 714.554C1189.8 814.153 1223.27 912.185 1234.07 1013.65" stroke="#EDF1FF" strokeWidth="2" stroke-miterlimit="10"/>
<path d="M1165.61 -265.947C1194.26 -148.729 1281.4 -51.5309 1326.98 60.3892C1348.29 112.649 1340.11 117.351 1286.82 125.287C1250.04 130.684 1213.98 149.334 1185.11 169.512C1124.62 211.99 1057.05 284.884 1046 356.012C1036.23 418.867 1112.39 432.795 1165.56 446.782C1196.49 454.917 1315.67 480.352 1284.27 533.604C1259.89 574.952 1159.54 541.798 1122.72 540.906C1024.16 538.564 1065.71 627.807 1081.15 685.741C1110.16 794.645 1152.8 902.002 1165.54 1013.64" stroke="#EDF1FF" strokeWidth="2" stroke-miterlimit="10"/>
<path d="M1097.05 -265.846C1120.86 -157.854 1205.99 -74.9209 1250.03 25.9084C1269.69 70.8073 1268.02 82.6125 1219.26 94.9532C1184.68 103.703 1152.32 124.714 1125.94 145.685C1068.98 191.14 1000.65 265.046 989.113 335.757C979.83 392.58 1042.67 411.151 1091.47 427.023C1125.16 438.114 1216.92 464.998 1192.42 514.063C1172.63 553.645 1092.74 541.066 1056.3 548.685C970.57 566.541 1005.34 638.642 1020.42 698.619C1046.75 803.377 1084.42 906.547 1096.89 1013.61" stroke="#EDF1FF" strokeWidth="2" stroke-miterlimit="10"/>
<path d="M1028.49 -265.947C1046.34 -183.966 1118.39 -134.345 1162.2 -64.2089C1183.8 -29.6468 1176.41 -24.2105 1146.76 -2.54475C1119.78 16.8227 1095.35 38.8325 1073.92 63.0677C1024.12 119.653 968.197 194.67 957.218 268.119C950.635 312.066 972.012 337.382 1005.95 364.782C1092.58 434.739 1037.33 494.677 988.927 567.869C952.331 623.184 963.6 676.396 975.873 737.941C994.148 829.783 1021.13 920.473 1028.47 1013.72" stroke="#EDF1FF" strokeWidth="2" stroke-miterlimit="10"/>
<path d="M959.948 -266.084C973.649 -204.777 1031.13 -204.579 1072.99 -165.91C1109.14 -132.419 1042.33 -68.4139 1022.67 -33.8915C983.601 34.7565 939.218 111.539 930.694 189.512C926.923 224.114 923.799 258.239 917.707 292.683C900.168 391.448 913.869 489.679 920.764 589.139C925.227 653.64 927.168 718.737 934.688 782.96C943.614 859.941 958.654 936.287 959.97 1013.84" stroke="#EDF1FF" strokeWidth="2" stroke-miterlimit="10"/>
<path d="M891.411 -266.084C885.185 -209.757 959.403 -248.228 987.028 -239.677C1035.74 -224.499 981.316 -126.447 969.511 -96.2898C940.012 -20.9952 899.377 56.9778 891.188 137.332C886.323 185.088 871.864 210.107 835.938 244.173C801.529 276.651 777.496 304.785 783.878 352.204C795.437 437.796 830.136 522.217 854.347 605.269C892.839 737.387 892.862 877.599 891.456 1013.76" stroke="#EDF1FF" strokeWidth="2" stroke-miterlimit="10"/>
<path d="M822.861 -266.046C812.685 -208.846 893.999 -251.642 919.995 -245.67C977.097 -232.575 924.279 -125.099 911.716 -93.6719C881.481 -18.0004 838.191 57.1156 825.873 137.43C818.398 186.059 804.742 212.447 771.025 250.679C739.628 286.293 713.32 317.284 718.653 365.079C728.27 450.989 768.838 535.826 795.28 618.125C837.678 750.242 819.424 878.312 822.838 1013.68" stroke="#EDF1FF" strokeWidth="2" stroke-miterlimit="10"/>
<path d="M754.313 -266.023C749.672 -206.125 841.674 -232.116 877.89 -217.95C944.588 -191.82 888.311 -101.565 867.09 -61.2098C829.312 10.7714 772.209 83.447 757.348 163.186C748.132 212.509 741.884 258.737 726.8 307.267C712.362 353.753 693.908 402.799 699.085 451.686C706.962 525.889 742.13 598.406 765.225 669.336C785.62 731.933 797.603 789.688 784.304 854.586C773.325 908.295 755.786 958.431 754.313 1013.65" stroke="#EDF1FF" strokeWidth="2" stroke-miterlimit="10"/>
<path d="M685.845 -265.96C706.352 -198.185 784.563 -210.645 842.96 -182.75C921.417 -145.251 862.284 -67.1987 829.036 -19.0458C783.024 47.5586 707.713 118.111 689.348 196.937C676.183 253.423 689.103 323.123 689.906 380.898C690.732 441.233 687.675 503.532 694.012 563.669C700.282 623.369 727.996 680.013 747.031 736.955C764.079 787.985 778.695 841.415 749.998 891.453C725.163 934.725 692.718 962.68 685.845 1013.77" stroke="#EDF1FF" strokeWidth="2" stroke-miterlimit="10"/>
<path d="M617.309 -265.947C642.279 -192.755 735.732 -190.037 800.867 -155.019C886.376 -109.068 828.648 -39.4877 784.399 13.4665C731.983 76.2616 642.815 143.858 620.768 222.744C603.408 285.003 635.072 375 645.626 437.537C657.609 508.566 665.374 579.158 674.389 650.326C680.526 698.756 701.524 741.83 716.921 788.217C731.112 830.894 747.469 884.245 708.307 920.434C670.841 955.055 628.467 959.718 617.242 1013.68" stroke="#EDF1FF" strokeWidth="2" stroke-miterlimit="10"/>
<path d="M548.809 -265.96C575.118 -193.463 667.856 -186.698 732.724 -149.914C817.094 -102.118 761.442 -35.7118 716.546 18.7304C664.621 81.6842 580.763 147.495 556.708 225.309C537.161 288.541 572.328 381.87 584.691 445.023C599.016 518.036 608.545 589.759 617.716 663.129C623.406 708.524 642.261 748.899 656.386 792.429C669.909 834.094 686.734 888.219 646.68 922.285C606.626 956.351 559.051 957.343 548.742 1013.81" stroke="#EDF1FF" strokeWidth="2" stroke-miterlimit="10"/>
<path d="M480.19 -265.96C499.715 -200.487 566.591 -198.503 620.212 -162.473C684.924 -118.824 644.423 -52.358 617.557 0.873986C584.822 65.6729 537.225 131.166 521.873 201.838C508.217 264.673 530.598 342.368 539.167 405.322C548.338 472.779 553.649 539.86 560.432 607.377C565.096 653.903 580.85 697.294 592.409 742.63C604.994 791.893 615.37 840.582 579.734 884.33C542.558 929.963 490.611 953.474 480.123 1013.79" stroke="#EDF1FF" strokeWidth="2" stroke-miterlimit="10"/>
<path d="M411.629 -266.007C417.877 -211.525 454.026 -214.958 488.725 -180.455C524.986 -144.385 508.562 -71.1541 506.956 -25.9972C502.493 98.3826 501.266 221.79 505.104 346.21C508.495 455.809 512.735 559.793 531.189 668.141C540.963 725.52 545.448 776.589 513.65 829.881C476.631 891.882 422.853 941.682 411.674 1013.7" stroke="#EDF1FF" strokeWidth="2" stroke-miterlimit="10"/>
<path d="M343.02 -266.023C338.669 -231.005 353.552 -223.564 365.089 -196.165C373.836 -175.431 367.588 -151.345 372.564 -129.679C378.79 -102.399 390.282 -75.0981 401.126 -49.0873C426.453 11.6444 462.044 72.7927 474.764 137.096C484.716 187.193 471.349 244.69 466.217 295.165C455.462 400.676 457.515 498.629 468.739 603.922C475.433 667.411 475.835 722.151 447.138 782.288C410.32 859.467 355.315 928.909 343.087 1013.65" stroke="#EDF1FF" strokeWidth="2" stroke-miterlimit="10"/>
<path d="M274.581 -266.007C274.425 -191.328 276.121 -122.997 317.559 -55.381C353.061 2.53334 407.887 61.0032 421.075 127.667C430.648 175.959 415.095 231.314 406.548 279.209C388.072 382.736 392.914 479.776 401.126 583.899C406.258 649.015 405.589 703.199 378.343 765.518C342.171 847.916 288.55 925.036 274.604 1013.7" stroke="#EDF1FF" strokeWidth="2" stroke-miterlimit="10"/>
<path d="M206.041 -266.046C206.331 -184.363 202.805 -105.973 241.432 -29.9444C270.44 26.9978 313.172 83.8605 324.262 146.636C332.809 195.046 319.688 248.794 312.949 297.046C298.623 399.463 302.015 497.296 308.486 600.07C312.436 662.964 312.146 717.664 289.452 778.634C260.265 856.964 218.18 931.048 206.086 1013.6" stroke="#EDF1FF" strokeWidth="2" stroke-miterlimit="10"/>
<path d="M137.513 -265.984C137.513 -173.171 128.186 -74.8413 157.484 14.9368C175.336 69.756 201.198 123.841 206.866 181.2C211.664 229.888 203.988 280.62 199.77 329.21C191.09 429.721 193.411 528.626 197.249 629.277C199.48 687.469 200.93 743.498 186.783 800.837C169.266 871.985 142.578 940.534 137.513 1013.73" stroke="#EDF1FF" strokeWidth="2" stroke-miterlimit="10"/>
<path d="M68.9624 -265.922C68.9624 -158.962 60.8177 -48.451 74.2956 57.9137C87.1602 158.172 91.9031 259.122 88.4875 359.985C85.2073 459.187 86.4122 558.092 87.7734 657.235C89.447 776.873 67.6905 894.785 68.9178 1013.87" stroke="#EDF1FF" strokeWidth="2" stroke-miterlimit="10"/>
</svg>